<?xml version="1.0" standalone="no"?>
<!DOCTYPE svg PUBLIC "-//W3C//DTD SVG 20010904//EN"
 "http://www.w3.org/TR/2001/REC-SVG-20010904/DTD/svg10.dtd">
<svg version="1.0" xmlns="http://www.w3.org/2000/svg"
 width="140.000000pt" height="140.000000pt" viewBox="0 0 140.000000 140.000000"
 preserveAspectRatio="xMidYMid meet">
<metadata>
Created by potrace 1.15, written by Peter Selinger 2001-2017
</metadata>
<g transform="translate(0.000000,140.000000) scale(0.100000,-0.100000)"
fill="#000000" stroke="none">
<path d="M373 1388 c-13 -6 -23 -18 -23 -27 1 -13 2 -13 11 2 9 16 22 18 92
16 45 -2 88 -8 95 -14 7 -5 18 -15 25 -20 7 -6 30 -22 53 -37 76 -49 168 -173
209 -282 27 -73 49 -90 73 -60 33 39 56 1 31 -51 -7 -16 -8 -13 -4 13 5 38 3
39 -35 10 -24 -17 -27 -25 -19 -40 7 -14 3 -53 -15 -143 -29 -139 -32 -185
-13 -185 21 0 36 36 31 77 -3 30 -2 34 6 18 8 -16 9 -12 5 20 -3 22 -1 56 4
75 7 29 9 31 10 10 1 -20 6 -15 25 27 24 52 52 76 84 72 36 -3 47 2 59 27 12
25 11 26 -6 10 -10 -9 -27 -16 -39 -16 -11 0 -32 -4 -45 -9 -24 -9 -25 -9 -20
29 7 54 -3 90 -26 90 -10 0 -24 -7 -31 -15 -20 -24 -27 -18 -45 38 -17 53 -58
132 -82 155 -7 7 -13 16 -13 20 0 22 -113 122 -183 164 -42 25 -66 32 -122 34
-40 2 -80 -1 -92 -8z"/>
<path d="M378 1349 c-23 -13 -23 -25 1 -32 28 -7 37 -66 17 -106 -9 -17 -48
-52 -90 -80 -41 -28 -88 -67 -105 -88 -59 -70 -102 -176 -127 -313 l-4 -25 25
28 c14 15 25 38 25 50 0 35 64 161 106 207 21 23 64 59 95 81 91 62 134 130
127 200 -3 20 1 24 22 21 50 -5 151 -64 204 -119 51 -51 124 -168 113 -180 -3
-2 -13 13 -23 34 -54 116 -176 222 -287 249 -23 5 -26 3 -21 -10 4 -9 1 -38
-7 -63 -14 -50 -60 -103 -142 -162 -26 -18 -61 -47 -77 -65 -35 -35 -95 -154
-104 -203 -5 -31 -4 -32 14 -21 17 11 24 9 50 -18 42 -42 51 -112 22 -177 -26
-58 -48 -69 -74 -36 -21 26 -21 25 -2 -41 9 -34 60 -27 85 13 l21 32 -5 -44
c-4 -29 -2 -40 4 -30 15 25 10 161 -11 247 -27 113 -26 180 3 235 48 90 105
116 146 66 47 -56 50 -122 10 -206 -18 -38 -52 -63 -66 -49 -12 11 -8 149 4
153 20 7 26 -42 9 -76 -9 -17 -13 -31 -8 -31 15 0 32 49 32 89 0 23 -8 48 -19
62 -16 20 -21 21 -35 10 -9 -7 -17 -23 -17 -35 -1 -16 -2 -17 -6 -4 -6 25 15
58 37 58 44 0 64 -97 35 -167 -19 -45 -14 -52 14 -17 46 59 51 147 9 191 -41
43 -96 26 -129 -40 -29 -57 -29 -142 1 -289 20 -103 22 -124 11 -170 -22 -101
-66 -146 -124 -125 -29 10 -67 60 -67 87 1 8 7 1 15 -17 17 -39 48 -58 73 -44
16 10 16 10 0 11 -35 0 -58 48 -58 121 0 102 31 152 67 109 13 -15 19 -17 26
-7 5 8 7 5 5 -8 -2 -11 -8 -20 -13 -20 -21 0 -35 -17 -35 -41 0 -37 31 -27 53
16 22 43 18 121 -8 150 -26 29 -71 26 -102 -7 -47 -51 -68 -110 -68 -199 0
-72 3 -85 28 -122 46 -66 136 -89 189 -48 10 7 29 33 43 57 13 24 25 37 25 28
0 -25 -57 -97 -91 -115 -41 -21 -84 -12 -132 27 -47 38 -65 74 -77 147 -9 56
-9 56 -5 -21 2 -56 9 -88 24 -113 12 -19 21 -47 22 -62 0 -24 1 -25 8 -7 5 11
7 23 4 27 -9 16 18 7 37 -12 11 -11 30 -20 42 -20 26 0 241 80 246 92 2 4 10
4 18 1 8 -3 14 -1 14 3 0 5 10 10 23 11 12 0 36 7 52 14 17 7 32 13 35 14 3 1
19 8 35 15 17 7 41 15 55 17 14 2 52 15 85 28 181 72 441 155 490 157 68 3
166 -89 165 -156 -1 -13 -6 -7 -15 18 -18 51 -61 94 -106 106 -68 19 -181 -14
-679 -195 -418 -152 -417 -152 -451 -132 -18 10 -34 15 -37 12 -10 -10 -5 -64
8 -79 18 -23 50 -20 136 14 42 17 133 51 203 76 69 24 151 54 181 65 30 11
154 54 275 96 174 59 236 76 297 80 76 6 77 5 108 -26 27 -27 31 -36 26 -64
-16 -76 -17 -94 -7 -119 12 -32 35 -37 46 -10 4 9 11 44 16 77 l8 60 -3 -68
c-6 -111 -52 -139 -80 -48 -13 40 -15 42 -15 16 -3 -111 76 -165 108 -74 16
47 14 189 -4 239 -16 46 -74 110 -100 110 -20 0 -19 5 7 40 16 22 22 46 23 92
2 68 16 113 37 120 17 6 18 122 1 139 -7 7 -16 10 -20 6 -4 -4 -1 -13 5 -19
18 -18 14 -66 -6 -86 -35 -35 -58 -122 -41 -151 10 -15 8 -24 -11 -50 -13 -20
-28 -30 -37 -27 -7 3 -22 0 -33 -6 -14 -9 -22 -9 -33 0 -11 9 -16 7 -27 -13
-20 -37 -44 -27 -51 20 -3 22 -7 31 -8 19 -2 -37 -22 -82 -38 -88 -23 -9 -26
-3 -29 61 -2 38 0 49 5 33 7 -23 8 -22 15 14 4 21 5 41 2 44 -3 3 -6 -3 -6
-13 0 -10 -2 -16 -5 -13 -4 3 -3 18 1 34 6 25 8 26 15 9 5 -14 8 -15 8 -4 2
27 -24 69 -42 69 -58 0 -125 -183 -87 -240 9 -13 13 -12 29 7 16 19 20 20 25
7 5 -13 9 -14 21 -4 11 9 15 9 15 1 0 -16 -33 -27 -38 -13 -2 8 -11 4 -23 -10
-18 -21 -21 -22 -32 -6 -10 15 -14 14 -39 -15 -25 -29 -29 -30 -38 -15 -10 16
-13 16 -34 -9 -20 -23 -26 -25 -39 -15 -13 11 -18 9 -33 -13 -19 -29 -40 -20
-46 18 -4 19 -7 17 -23 -15 -20 -40 -52 -59 -65 -37 -6 9 -15 4 -34 -17 -22
-24 -27 -27 -36 -14 -5 8 -10 26 -11 40 -1 18 -4 13 -13 -18 -10 -40 -40 -72
-53 -58 -13 13 -12 104 2 153 16 54 9 93 -16 93 -21 0 -69 -63 -83 -109 -8
-25 -15 -38 -15 -28 -1 10 5 33 13 52 8 19 10 35 5 37 -5 2 -12 19 -15 39 -6
33 -4 37 20 43 41 10 76 92 76 178 0 70 -14 112 -45 138 -15 13 -14 16 12 39
35 31 73 107 73 144 0 15 2 27 5 27 24 0 127 -63 169 -104 61 -60 126 -169
125 -212 0 -16 3 -44 7 -62 3 -18 2 -38 -3 -45 -6 -6 -7 -23 -3 -37 5 -21 8
-17 14 23 4 27 10 47 13 44 2 -3 -5 -51 -16 -108 -23 -114 -27 -179 -10 -179
24 0 37 35 34 85 -3 38 -2 43 4 20 l8 -30 6 25 c9 39 47 225 47 233 0 17 -19
5 -23 -15 -2 -13 -2 -4 0 20 5 47 -1 50 -36 21 -18 -15 -21 -23 -13 -31 17
-17 15 -33 -3 -18 -17 14 -21 60 -5 60 7 0 7 7 0 21 -6 11 -9 25 -7 32 3 7 8
0 12 -15 8 -31 17 -35 34 -14 22 26 -34 148 -116 248 -59 72 -151 141 -211
158 -47 13 -112 12 -134 -1z"/>
<path d="M1244 928 c-47 -22 -94 -151 -79 -218 7 -32 29 -40 39 -14 4 10 13
13 25 9 26 -8 33 6 36 75 2 32 8 67 14 78 23 44 1 87 -35 70z"/>
<path d="M713 898 c2 -13 1 -34 -3 -48 l-8 -25 -1 28 c-1 38 -18 25 -31 -25
-6 -22 -23 -51 -38 -65 -20 -18 -23 -26 -13 -32 11 -7 10 -21 -3 -79 -18 -79
-21 -148 -7 -157 10 -5 51 32 51 46 0 4 -4 11 -10 14 -5 3 -10 16 -9 28 0 19
1 20 8 4 6 -18 7 -18 22 0 12 14 39 86 39 105 0 2 -8 4 -19 5 -14 1 -20 -7
-25 -39 -4 -22 -9 -38 -12 -35 -3 3 0 31 7 62 11 51 14 55 26 39 12 -17 13
-17 13 2 0 10 3 30 7 43 4 17 3 22 -5 17 -8 -5 -12 1 -12 14 0 19 2 20 15 6 8
-8 15 -22 15 -32 0 -16 1 -16 20 1 17 16 18 20 5 38 -19 28 -19 52 1 71 14 15
14 16 0 16 -9 0 -16 5 -16 10 0 6 -5 10 -11 10 -6 0 -9 -10 -6 -22z"/>
<path d="M1117 878 c-14 -20 -16 -20 -10 -3 6 19 5 19 -19 -2 -13 -13 -30 -23
-36 -23 -16 0 -16 -27 0 -32 9 -3 8 -23 -5 -81 -21 -95 -21 -108 -3 -101 8 3
21 37 31 78 8 40 22 82 30 92 13 18 14 17 15 -11 0 -18 -3 -25 -8 -18 -4 7 -9
-17 -10 -52 -1 -51 2 -65 13 -65 22 0 39 38 24 56 -6 8 -8 14 -3 14 9 0 14 42
18 124 1 46 -14 56 -37 24z"/>
<path d="M546 688 c-12 -18 -14 -18 -9 -4 5 16 3 17 -13 7 -48 -27 -56 -38
-43 -59 9 -15 9 -34 -5 -92 -9 -40 -16 -80 -16 -88 0 -38 32 17 46 80 16 70
43 122 44 83 0 -11 -3 -31 -7 -43 -4 -18 -8 -21 -15 -10 -7 9 -8 5 -4 -12 3
-14 6 -37 6 -52 0 -18 5 -28 15 -28 20 0 35 32 28 58 -3 12 -2 38 2 59 5 27 9
33 16 22 6 -9 7 1 3 31 -10 79 -19 88 -48 48z"/>
<path d="M1063 491 c-40 -10 -110 -32 -155 -49 -46 -17 -103 -37 -128 -45 -47
-15 -365 -127 -485 -172 -57 -21 -98 -39 -143 -62 -2 -1 0 -9 6 -18 8 -16 10
-16 15 -1 7 17 37 22 37 6 0 -5 -8 -10 -17 -10 -14 0 -15 -2 -5 -9 8 -4 12
-19 10 -32 l-5 -24 -11 25 c-6 14 -11 18 -11 10 -1 -23 15 -43 28 -36 6 4 11
20 11 35 0 33 22 56 45 47 16 -6 19 -12 29 -58 4 -16 11 -28 17 -28 8 0 8 4 2
13 -6 6 -14 29 -17 51 -6 32 -5 38 8 33 8 -3 17 -1 19 6 7 17 29 -43 29 -75
-1 -28 11 -37 24 -17 3 6 1 16 -5 22 -13 13 -15 31 -2 23 5 -3 12 1 15 10 9
24 7 44 -5 44 -6 0 -8 -9 -4 -20 5 -14 2 -20 -9 -20 -9 0 -16 4 -16 9 0 5 -3
16 -6 24 -4 11 6 18 33 27 21 6 45 14 53 17 8 4 17 7 20 8 3 1 13 5 22 9 25
11 192 70 363 127 83 28 159 54 170 59 78 34 200 52 251 38 32 -8 35 -12 31
-36 -5 -25 -4 -25 9 -7 21 28 17 51 -12 74 -34 26 -109 27 -211 2z"/>
<path d="M50 215 c-5 -34 3 -172 11 -187 11 -20 39 -25 39 -6 0 9 3 9 12 0 9
-9 70 -12 214 -12 227 0 214 -5 214 78 0 62 -9 92 -27 92 -11 0 -11 -4 -3 -20
6 -12 10 -37 8 -58 -3 -33 -6 -37 -38 -43 -38 -8 -49 0 -51 41 -1 21 -3 19 -8
-8 -8 -41 -24 -45 -32 -6 -5 21 -7 23 -8 8 -2 -32 -25 -48 -41 -29 -11 14 -14
13 -26 -2 -13 -17 -15 -17 -27 -2 -11 15 -15 15 -32 3 -14 -11 -21 -11 -26 -2
-6 9 -12 8 -24 -2 -15 -12 -19 -12 -31 5 -8 10 -14 14 -14 8 0 -6 -9 -13 -20
-16 -13 -3 -21 1 -26 16 -6 20 -7 20 -24 -3 -15 -20 -18 -21 -23 -5 -13 32 -8
85 8 92 14 5 14 8 2 22 -8 9 -17 23 -20 31 -3 8 -6 11 -7 5z"/>
<path d="M774 125 l1 -60 -32 -1 c-18 0 -35 -3 -39 -6 -10 -11 -42 29 -47 59
-3 23 -4 22 -6 -9 -1 -30 3 -38 16 -38 12 0 14 -3 7 -10 -7 -7 -19 -8 -36 -1
-17 6 -29 6 -36 -1 -8 -8 -14 -5 -21 13 -7 16 -10 18 -10 7 -1 -9 3 -28 9 -42
l10 -26 279 0 c249 0 281 2 289 16 5 9 8 26 6 38 -3 12 2 5 9 -14 l14 -35 72
-3 c45 -2 78 2 87 9 17 14 18 85 1 96 -7 4 -18 21 -25 37 -17 38 -24 28 -16
-23 5 -33 9 -39 20 -30 8 6 14 10 15 8 6 -31 5 -40 -7 -50 -8 -7 -14 -7 -14
-1 0 5 -7 9 -16 8 -9 0 -19 5 -22 13 -3 8 0 11 7 7 7 -5 11 2 11 18 0 14 -4
27 -9 30 -10 7 -23 -48 -15 -67 3 -8 -3 -13 -16 -13 -12 0 -19 5 -16 13 3 7
-1 10 -10 6 -9 -3 -14 2 -14 15 0 12 -5 24 -11 28 -8 4 -7 9 2 15 10 6 10 9 2
9 -18 0 -27 -20 -14 -33 15 -15 14 -30 -1 -22 -7 4 -4 -1 6 -9 11 -9 17 -19
13 -22 -16 -16 -39 21 -35 58 4 38 -6 40 -15 3 -3 -11 -5 -4 -6 17 -1 38 -13
54 -31 43 -8 -5 -7 -12 2 -22 22 -27 2 -113 -23 -97 -15 9 -10 24 6 18 18 -7
21 31 4 42 -8 4 -7 9 2 16 11 8 11 9 -1 5 -16 -5 -16 -10 -4 -41 5 -12 4 -17
-3 -13 -6 4 -18 -2 -28 -13 -13 -15 -21 -17 -31 -9 -7 6 -18 8 -25 4 -14 -9
-30 15 -24 36 6 19 -19 44 -35 34 -6 -3 -10 3 -10 15 0 13 4 19 12 14 7 -4 8
-3 4 4 -16 26 -28 11 -22 -27 3 -22 1 -52 -5 -68 -9 -25 -12 -26 -20 -11 -5
10 -11 31 -12 48 -1 16 -8 30 -14 30 -14 0 -17 -13 -6 -23 3 -4 8 -22 9 -39 3
-31 3 -32 -11 -14 -15 19 -19 47 -15 95 1 15 -2 21 -9 16 -6 -3 -9 -10 -6 -15
3 -4 1 -18 -3 -30 -8 -22 -9 -21 -25 13 -12 24 -22 34 -32 31 -8 -4 -15 -8
-15 -11 0 -3 6 -3 14 0 27 11 36 -82 11 -103 -12 -10 -19 -10 -27 -2 -9 9 -7
12 8 12 15 0 16 2 5 9 -12 8 -12 12 -2 25 11 13 11 16 0 16 -11 0 -11 2 1 10
13 8 13 10 -2 10 -9 0 -18 10 -21 23 -2 12 -3 -5 -3 -38z"/>
</g>
</svg>
